<svg width="400" height="250" fill="none" xmlns="http://www.w3.org/2000/svg"><g clip-path="url(#a)"><path d="M131.09 203.69H58.91c-4.92 0-8.91-4-8.91-8.91V55.91C50 51 54 47 58.91 47h72.18c4.92 0 8.91 4 8.91 8.91v138.86c0 4.92-4 8.91-8.91 8.91v.01zM58.91 51C56.2 51 54 53.2 54 55.91v138.86c0 2.71 2.2 4.91 4.91 4.91h72.18c2.71 0 4.91-2.2 4.91-4.91V55.91c0-2.71-2.2-4.91-4.91-4.91H58.91z" fill="#E7E6E6"/><path d="M120.95 130.72H66.1a2.65 2.65 0 0 0-2.65 2.65v.01a2.65 2.65 0 0 0 2.65 2.65h54.85a2.65 2.65 0 0 0 2.65-2.65v-.01a2.65 2.65 0 0 0-2.65-2.65z" fill="#C7C7C7"/><path d="M100.19 141.37H64.71a1.26 1.26 0 1 0 0 2.52h35.48a1.26 1.26 0 1 0 0-2.52zM107.97 160.46H65.29c-1.016 0-1.84.822-1.84 1.835s.824 1.835 1.84 1.835h42.68c1.016 0 1.84-.822 1.84-1.835a1.838 1.838 0 0 0-1.84-1.835z" fill="#E7E6E6"/><path d="M72.28 188.57h-1.29a.39.39 0 0 1-.39-.39v-2.91h-.75a.39.39 0 0 1-.39-.39v-1.25c0-.22.18-.39.39-.39h.75v-.62c0-.62.19-1.15.56-1.52.37-.38.89-.58 1.49-.58h.98c.22 0 .39.18.39.39v1.16c0 .22-.18.39-.39.39h-.66c-.2 0-.25.04-.26.05-.02.02-.04.08-.04.24v.49h.92c.07 0 .14.02.19.05.12.07.2.2.2.34v1.25c0 .22-.18.39-.39.39h-.92v2.91c0 .22-.18.39-.39.39zm-1.21-.47h1.13v-3.04c0-.14.12-.26.26-.26h1.05v-1.08h-1.05c-.14 0-.26-.12-.26-.26v-.7c0-.18.02-.39.16-.55.17-.19.43-.21.62-.21h.58v-.99h-.9c-.98 0-1.58.62-1.58 1.63v.84c0 .14-.12.26-.26.26h-.88v1.08h.88c.14 0 .26.12.26.26v3.04l-.01-.02zM117.92 183.94l2.92-3.4h-.69l-2.54 2.95-2.03-2.95h-2.34l3.06 4.46-3.06 3.56h.69l2.68-3.11 2.14 3.11h2.34l-3.18-4.63.01.01zm-.95 1.1-.31-.44-2.47-3.53h1.06l1.99 2.85.31.44 2.59 3.71h-1.06l-2.11-3.03zM96.03 180.52h-3.69c-1.2 0-2.18.98-2.18 2.18v3.69c0 1.2.98 2.18 2.18 2.18h3.69c1.2 0 2.18-.98 2.18-2.18v-3.69c0-1.2-.98-2.18-2.18-2.18zm1.71 5.87c0 .94-.77 1.71-1.71 1.71h-3.69c-.94 0-1.71-.77-1.71-1.71v-3.69c0-.94.77-1.71 1.71-1.71h3.69c.94 0 1.71.77 1.71 1.71v3.69z" fill="#C7C7C7"/><path d="M94.18 182.34c-1.21 0-2.2.99-2.2 2.2 0 1.21.99 2.2 2.2 2.2 1.21 0 2.2-.99 2.2-2.2 0-1.21-.99-2.2-2.2-2.2zm0 3.93c-.95 0-1.73-.78-1.73-1.73s.78-1.73 1.73-1.73 1.73.78 1.73 1.73-.78 1.73-1.73 1.73zM96.44 181.56c-.36 0-.65.29-.65.65 0 .36.29.65.65.65.36 0 .65-.29.65-.65 0-.36-.29-.65-.65-.65zm0 .83a.18.18 0 0 1-.18-.18c0-.1.08-.18.18-.18.1 0 .18.08.18.18 0 .1-.08.18-.18.18zM76.39 60.57H64.21a.76.76 0 0 0-.76.76v4.69c0 .42.34.76.76.76h12.18c.42 0 .76-.34.76-.76v-4.69a.76.76 0 0 0-.76-.76z" fill="#C7C7C7"/><path d="M236.09 203.69h-72.18c-4.92 0-8.91-4-8.91-8.91V55.91c0-4.91 4-8.91 8.91-8.91h72.18c4.92 0 8.91 4 8.91 8.91v138.86c0 4.92-4 8.91-8.91 8.91v.01zM163.91 51c-2.71 0-4.91 2.2-4.91 4.91v138.86c0 2.71 2.2 4.91 4.91 4.91h72.18c2.71 0 4.91-2.2 4.91-4.91V55.91c0-2.71-2.2-4.91-4.91-4.91h-72.18z" fill="#E7E6E6"/><path d="M225.95 130.72H171.1a2.65 2.65 0 0 0-2.65 2.65v.01a2.65 2.65 0 0 0 2.65 2.65h54.85a2.65 2.65 0 0 0 2.65-2.65v-.01a2.65 2.65 0 0 0-2.65-2.65z" fill="#C7C7C7"/><path d="M205.19 141.37h-35.48a1.26 1.26 0 1 0 0 2.52h35.48a1.26 1.26 0 1 0 0-2.52zM212.97 160.46h-42.68c-1.016 0-1.84.822-1.84 1.835s.824 1.835 1.84 1.835h42.68c1.016 0 1.84-.822 1.84-1.835a1.838 1.838 0 0 0-1.84-1.835z" fill="#E7E6E6"/><path d="M177.28 188.57h-1.29a.39.39 0 0 1-.39-.39v-2.91h-.75a.39.39 0 0 1-.39-.39v-1.25c0-.22.18-.39.39-.39h.75v-.62c0-.62.19-1.15.56-1.52.37-.38.89-.58 1.49-.58h.98c.22 0 .39.18.39.39v1.16c0 .22-.18.39-.39.39h-.66c-.2 0-.25.04-.26.05-.02.02-.04.08-.04.24v.49h.92c.07 0 .14.02.19.05.12.07.2.2.2.34v1.25c0 .22-.18.39-.39.39h-.92v2.91c0 .22-.18.39-.39.39zm-1.21-.47h1.13v-3.04c0-.14.12-.26.26-.26h1.05v-1.08h-1.05c-.14 0-.26-.12-.26-.26v-.7c0-.18.02-.39.16-.55.17-.19.43-.21.62-.21h.58v-.99h-.9c-.98 0-1.58.62-1.58 1.63v.84c0 .14-.12.26-.26.26h-.88v1.08h.88c.14 0 .26.12.26.26v3.04l-.01-.02zM222.92 183.94l2.92-3.4h-.69l-2.54 2.95-2.03-2.95h-2.34l3.06 4.46-3.06 3.56h.69l2.68-3.11 2.14 3.11h2.34l-3.18-4.63.01.01zm-.95 1.1-.31-.44-2.47-3.53h1.06l1.99 2.85.31.44 2.59 3.71h-1.06l-2.11-3.03zM201.03 180.52h-3.69c-1.2 0-2.18.98-2.18 2.18v3.69c0 1.2.98 2.18 2.18 2.18h3.69c1.2 0 2.18-.98 2.18-2.18v-3.69c0-1.2-.98-2.18-2.18-2.18zm1.71 5.87c0 .94-.77 1.71-1.71 1.71h-3.69c-.94 0-1.71-.77-1.71-1.71v-3.69c0-.94.77-1.71 1.71-1.71h3.69c.94 0 1.71.77 1.71 1.71v3.69z" fill="#C7C7C7"/><path d="M199.18 182.34c-1.21 0-2.2.99-2.2 2.2 0 1.21.99 2.2 2.2 2.2 1.21 0 2.2-.99 2.2-2.2 0-1.21-.99-2.2-2.2-2.2zm0 3.93c-.95 0-1.73-.78-1.73-1.73s.78-1.73 1.73-1.73 1.73.78 1.73 1.73-.78 1.73-1.73 1.73zM201.44 181.56c-.36 0-.65.29-.65.65 0 .36.29.65.65.65.36 0 .65-.29.65-.65 0-.36-.29-.65-.65-.65zm0 .83a.18.18 0 0 1-.18-.18c0-.1.08-.18.18-.18.1 0 .18.08.18.18 0 .1-.08.18-.18.18zM181.39 60.57h-12.18a.76.76 0 0 0-.76.76v4.69c0 .42.34.76.76.76h12.18c.42 0 .76-.34.76-.76v-4.69a.76.76 0 0 0-.76-.76z" fill="#C7C7C7"/><path d="M341.09 203.69h-72.18c-4.92 0-8.91-4-8.91-8.91V55.91c0-4.91 4-8.91 8.91-8.91h72.18c4.92 0 8.91 4 8.91 8.91v138.86c0 4.92-4 8.91-8.91 8.91v.01zM268.91 51c-2.71 0-4.91 2.2-4.91 4.91v138.86c0 2.71 2.2 4.91 4.91 4.91h72.18c2.71 0 4.91-2.2 4.91-4.91V55.91c0-2.71-2.2-4.91-4.91-4.91h-72.18z" fill="#E7E6E6"/><path d="M330.95 130.72H276.1a2.65 2.65 0 0 0-2.65 2.65v.01a2.65 2.65 0 0 0 2.65 2.65h54.85a2.65 2.65 0 0 0 2.65-2.65v-.01a2.65 2.65 0 0 0-2.65-2.65z" fill="#C7C7C7"/><path d="M310.19 141.37h-35.48a1.26 1.26 0 1 0 0 2.52h35.48a1.26 1.26 0 1 0 0-2.52zM317.97 160.46h-42.68c-1.016 0-1.84.822-1.84 1.835s.824 1.835 1.84 1.835h42.68c1.016 0 1.84-.822 1.84-1.835a1.838 1.838 0 0 0-1.84-1.835z" fill="#E7E6E6"/><path d="M282.28 188.57h-1.29a.39.39 0 0 1-.39-.39v-2.91h-.75a.39.39 0 0 1-.39-.39v-1.25c0-.22.18-.39.39-.39h.75v-.62c0-.62.19-1.15.56-1.52.37-.38.89-.58 1.49-.58h.98c.22 0 .39.18.39.39v1.16c0 .22-.18.39-.39.39h-.66c-.2 0-.25.04-.26.05-.02.02-.04.08-.04.24v.49h.92c.07 0 .14.02.19.05.12.07.2.2.2.34v1.25c0 .22-.18.39-.39.39h-.92v2.91c0 .22-.18.39-.39.39zm-1.21-.47h1.13v-3.04c0-.14.12-.26.26-.26h1.05v-1.08h-1.05c-.14 0-.26-.12-.26-.26v-.7c0-.18.02-.39.16-.55.17-.19.43-.21.62-.21h.58v-.99h-.9c-.98 0-1.58.62-1.58 1.63v.84c0 .14-.12.26-.26.26h-.88v1.08h.88c.14 0 .26.12.26.26v3.04l-.01-.02zM327.92 183.94l2.92-3.4h-.69l-2.54 2.95-2.03-2.95h-2.34l3.06 4.46-3.06 3.56h.69l2.68-3.11 2.14 3.11h2.34l-3.18-4.63.01.01zm-.95 1.1-.31-.44-2.47-3.53h1.06l1.99 2.85.31.44 2.59 3.71h-1.06l-2.11-3.03zM306.03 180.52h-3.69c-1.2 0-2.18.98-2.18 2.18v3.69c0 1.2.98 2.18 2.18 2.18h3.69c1.2 0 2.18-.98 2.18-2.18v-3.69c0-1.2-.98-2.18-2.18-2.18zm1.71 5.87c0 .94-.77 1.71-1.71 1.71h-3.69c-.94 0-1.71-.77-1.71-1.71v-3.69c0-.94.77-1.71 1.71-1.71h3.69c.94 0 1.71.77 1.71 1.71v3.69z" fill="#C7C7C7"/><path d="M304.18 182.34c-1.21 0-2.2.99-2.2 2.2 0 1.21.99 2.2 2.2 2.2 1.21 0 2.2-.99 2.2-2.2 0-1.21-.99-2.2-2.2-2.2zm0 3.93c-.95 0-1.73-.78-1.73-1.73s.78-1.73 1.73-1.73 1.73.78 1.73 1.73-.78 1.73-1.73 1.73zM306.44 181.56c-.36 0-.65.29-.65.65 0 .36.29.65.65.65.36 0 .65-.29.65-.65 0-.36-.29-.65-.65-.65zm0 .83a.18.18 0 0 1-.18-.18c0-.1.08-.18.18-.18.1 0 .18.08.18.18 0 .1-.08.18-.18.18zM286.39 60.57h-12.18a.76.76 0 0 0-.76.76v4.69c0 .42.34.76.76.76h12.18c.42 0 .76-.34.76-.76v-4.69a.76.76 0 0 0-.76-.76z" fill="#C7C7C7"/></g><path d="M100 89a3 3 0 1 0 0-6 3 3 0 0 0 0 6zM109.866 109c1.644 0 2.668-1.706 1.842-3.059l-7.366-10.512c-1.05-1.238-2.642-1.296-3.744-.131l-4.07 4.772c-1.11 1.173-2.71 1.107-3.76-.156l-6.592-7.92c-1.102-1.321-2.797-1.33-3.898 0L72.32 105.9c-.877 1.353.147 3.092 1.816 3.092h35.729V109zM206 89a3 3 0 1 0 0-6 3 3 0 0 0 0 6zM215.866 109c1.644 0 2.668-1.706 1.842-3.059l-7.366-10.512c-1.05-1.238-2.642-1.296-3.744-.131l-4.07 4.772c-1.11 1.173-2.711 1.107-3.76-.156l-6.592-7.92c-1.102-1.321-2.797-1.33-3.898 0l-9.957 13.906c-.877 1.353.147 3.092 1.816 3.092h35.729V109zM312 89a3 3 0 1 0 0-6 3 3 0 0 0 0 6zM321.866 109c1.644 0 2.668-1.706 1.842-3.059l-7.366-10.512c-1.05-1.238-2.642-1.296-3.744-.131l-4.07 4.772c-1.11 1.173-2.711 1.107-3.76-.156l-6.592-7.92c-1.102-1.321-2.797-1.33-3.898 0l-9.957 13.906c-.877 1.353.147 3.092 1.816 3.092h35.729V109z" fill="#E7E6E6"/><defs><clipPath id="a"><path fill="#fff" transform="translate(50 47)" d="M0 0h299.47v156.69H0z"/></clipPath></defs></svg>